<svg xmlns="http://www.w3.org/2000/svg" xmlns:xlink="http://www.w3.org/1999/xlink" width="500" zoomAndPan="magnify" viewBox="0 0 375 374.999991" height="500" preserveAspectRatio="xMidYMid meet" version="1.0"><defs><clipPath id="21dd40db6c"><path d="M 128 269.40625 L 262.5 269.40625 L 262.5 312.15625 L 128 312.15625 Z M 128 269.40625 " clip-rule="nonzero"/></clipPath><clipPath id="bbd6203736"><path d="M 112.5 269.40625 L 125 269.40625 L 125 302 L 112.5 302 Z M 112.5 269.40625 " clip-rule="nonzero"/></clipPath><clipPath id="930038570b"><path d="M 112.5 119.40625 L 262.5 119.40625 L 262.5 269.40625 L 112.5 269.40625 Z M 112.5 119.40625 " clip-rule="nonzero"/></clipPath></defs><g clip-path="url(#21dd40db6c)"><path fill="#000000" d="M 261.886719 291.546875 C 261.648438 291.847656 261.320312 292.117188 261.140625 292.480469 C 260.871094 293.199219 260.808594 294.011719 260.421875 294.671875 C 260.152344 295.183594 259.496094 295.902344 259.136719 295.84375 C 258.625 295.785156 258.058594 295.121094 257.757812 294.582031 C 257.429688 293.980469 257.25 293.199219 257.25 292.480469 C 257.191406 289.476562 257.160156 286.46875 257.222656 283.464844 C 257.25 281.09375 256.953125 280.523438 254.707031 279.832031 C 253.183594 279.320312 252.496094 279.589844 251.957031 281.183594 C 251.148438 283.554688 250.429688 286.019531 249.683594 288.421875 C 249.59375 288.722656 249.472656 288.996094 249.382812 289.292969 C 249.117188 288.84375 249.027344 288.453125 249.027344 288.03125 C 248.964844 286.171875 248.875 284.246094 248.785156 282.386719 C 248.726562 280.851562 247.859375 280.042969 246.214844 279.652344 C 244.75 279.320312 244.210938 280.3125 243.761719 281.363281 C 243.402344 282.234375 243.074219 283.136719 242.746094 284.007812 C 242.445312 284.847656 242.144531 285.75 241.789062 286.742188 C 241.636719 286.5 241.578125 286.46875 241.578125 286.410156 C 241.578125 285.058594 241.546875 283.648438 241.546875 282.292969 C 241.546875 280.25 241.488281 280.160156 239.515625 279.769531 C 238.167969 279.5 237.898438 279.710938 237.839844 281.0625 C 237.808594 284.15625 237.867188 287.25 237.691406 290.375 C 237.628906 291.699219 237.210938 293.078125 236.734375 294.339844 C 236.433594 295.210938 235.894531 296.292969 234.667969 296.113281 C 233.414062 295.933594 233.292969 294.761719 233.234375 293.800781 C 233.171875 289.984375 233.144531 286.171875 233.171875 282.324219 C 233.171875 281.304688 233.144531 280.523438 231.976562 280.25 C 230.871094 279.980469 229.671875 279.441406 229.105469 281.0625 C 225.546875 278.300781 222.585938 278.988281 220.582031 283.046875 C 219.144531 285.929688 218.996094 289.085938 219.292969 292.238281 C 219.355469 292.78125 219.503906 293.410156 219.355469 293.921875 C 219.085938 294.941406 218.695312 296.113281 217.378906 296.175781 C 216.0625 296.234375 215.617188 295.121094 215.496094 294.132812 C 215.257812 292.539062 215.078125 290.886719 215.195312 289.292969 C 215.347656 287.433594 215.855469 285.570312 216.183594 283.707031 C 216.484375 282.023438 215.707031 281.125 214 281.214844 C 213.34375 281.242188 212.746094 281.421875 212.117188 281.484375 C 211.367188 281.574219 210.652344 281.722656 209.902344 281.8125 C 209.960938 281.722656 210.082031 281.574219 210.140625 281.484375 C 209.722656 280.703125 209.484375 279.652344 208.855469 279.230469 C 208.316406 278.898438 207.152344 279.082031 206.492188 279.441406 C 205.175781 280.160156 204.789062 282.324219 205.773438 283.527344 C 206.34375 284.21875 206.375 284.816406 206.042969 285.507812 C 204.96875 287.824219 203.859375 290.164062 202.753906 292.480469 C 202.605469 292.78125 202.304688 293.050781 202.097656 293.320312 C 201.828125 292.78125 201.828125 292.328125 201.828125 291.847656 C 201.855469 288.574219 201.886719 285.300781 201.886719 282.023438 C 201.886719 281.542969 201.796875 280.941406 201.527344 280.640625 C 200.511719 279.652344 198.746094 279.863281 197.878906 281.003906 C 197.730469 280.914062 197.609375 280.824219 197.460938 280.734375 C 194.917969 278.597656 192.046875 278.960938 190.191406 281.722656 C 188.066406 284.9375 187.890625 288.542969 188.007812 292.238281 C 188.039062 293.261719 187.710938 294.460938 187.171875 295.332031 C 186.421875 296.625 185.078125 296.414062 184.570312 295.03125 C 184.300781 294.28125 184.121094 293.441406 184.121094 292.660156 C 184.089844 289.085938 184.089844 285.539062 184.179688 281.964844 C 184.210938 280.492188 183.3125 280.28125 182.234375 280.070312 C 181.25 279.863281 180.410156 279.863281 180.203125 281.242188 C 177.570312 278.871094 174.847656 278.75 172.992188 281.03125 C 172.125 282.085938 171.378906 283.40625 170.988281 284.699219 C 170.480469 286.410156 170.332031 288.242188 170.152344 290.015625 C 169.914062 291.96875 169.195312 293.652344 167.789062 295.03125 C 166.800781 295.964844 165.964844 295.785156 165.484375 294.550781 C 165.1875 293.679688 164.949219 292.71875 164.949219 291.789062 C 164.976562 287.792969 165.097656 283.796875 165.15625 279.800781 C 165.15625 279.082031 165.457031 278.78125 166.175781 278.808594 C 167.339844 278.808594 168.476562 278.78125 169.644531 278.78125 C 170.660156 278.78125 170.960938 278.179688 171.019531 277.308594 C 171.109375 276.316406 170.421875 276.316406 169.761719 276.285156 C 169.253906 276.257812 168.746094 276.257812 168.238281 276.226562 C 165.304688 276.136719 165.304688 276.136719 165.425781 273.253906 C 165.425781 273.101562 165.425781 272.980469 165.425781 272.890625 C 165.484375 270.636719 165.457031 270.578125 163.210938 270.097656 C 163.035156 270.066406 162.882812 270.039062 162.703125 270.007812 C 161.777344 269.796875 161.328125 270.15625 161.238281 271.089844 C 161.179688 272.351562 161.058594 273.582031 161.058594 274.84375 C 161.058594 275.683594 160.730469 276.015625 159.863281 275.894531 C 159.054688 275.835938 158.246094 275.804688 157.410156 275.804688 C 156.183594 275.835938 156.214844 276.828125 156.09375 277.636719 C 155.945312 278.597656 156.632812 278.628906 157.320312 278.628906 C 158.097656 278.628906 158.847656 278.691406 159.625 278.691406 C 160.429688 278.691406 160.730469 279.019531 160.730469 279.863281 C 160.699219 282.476562 160.761719 285.117188 160.640625 287.730469 C 160.550781 289.957031 159.382812 291.757812 157.589844 293.589844 C 157.917969 288.753906 153.820312 287.582031 151.488281 285.207031 C 152.085938 284.039062 152.773438 283.015625 153.164062 281.902344 C 153.730469 280.222656 152.953125 279.320312 151.21875 279.378906 C 148.289062 279.472656 146.433594 282.835938 147.75 285.449219 C 147.988281 285.898438 148.019531 286.652344 147.808594 287.042969 C 146.761719 289.054688 145.625 291.035156 144.371094 292.929688 C 144.128906 293.652344 143.292969 294.160156 142.605469 294.730469 C 142.363281 293.859375 141.886719 292.988281 141.886719 292.117188 C 141.855469 289.054688 141.976562 286.019531 142.097656 282.957031 C 142.125 281.84375 141.738281 281.09375 140.808594 280.492188 C 138.746094 279.230469 137.191406 279.289062 135.753906 281.242188 C 134.589844 282.804688 133.78125 284.636719 132.914062 286.378906 C 132.496094 287.160156 132.316406 287.972656 131.984375 288.785156 C 131.898438 288.753906 131.777344 288.753906 131.65625 288.722656 C 131.65625 288.273438 131.65625 287.792969 131.65625 287.371094 C 131.6875 285.390625 131.71875 283.40625 131.71875 281.453125 C 131.71875 280.402344 130.492188 279.621094 129.085938 279.652344 C 127.917969 279.679688 128.128906 280.582031 128.128906 281.242188 C 128.097656 285.808594 128.097656 290.375 128.066406 294.914062 C 128.066406 295.453125 128.097656 296.023438 128.21875 296.59375 C 128.488281 298.035156 129.054688 298.398438 130.519531 298.425781 C 131.898438 298.457031 131.898438 297.554688 132.074219 296.59375 C 132.882812 292.269531 134.109375 288.09375 136.621094 284.367188 C 136.953125 283.855469 137.429688 283.375 137.878906 282.894531 C 138.179688 283.617188 138.179688 284.15625 138.179688 284.699219 C 138.148438 288.152344 138.027344 291.578125 138.148438 295.03125 C 138.179688 296.324219 138.445312 297.796875 139.972656 298.308594 C 141.46875 298.816406 142.664062 298.007812 143.621094 296.984375 C 144.429688 296.175781 145.175781 295.242188 145.804688 294.28125 C 146.972656 292.507812 147.988281 290.675781 149.066406 288.875 C 149.304688 288.453125 149.574219 288.09375 150.023438 287.433594 C 151.25 288.785156 152.476562 289.957031 153.402344 291.277344 C 154.328125 292.597656 154.148438 294.371094 153.222656 295.183594 C 152.414062 295.933594 151.429688 295.753906 149.871094 294.703125 C 148.707031 293.921875 148.199219 294.011719 147.480469 295.183594 C 146.671875 296.476562 146.882812 297.164062 148.289062 297.796875 C 151.996094 299.480469 156.304688 298.367188 158.757812 295.0625 C 159.472656 294.101562 160.042969 293.050781 160.789062 291.910156 C 161.117188 293.109375 161.328125 294.132812 161.65625 295.121094 C 162.226562 296.804688 163.210938 298.097656 165.128906 298.367188 C 167.011719 298.636719 168.148438 297.4375 169.136719 296.085938 C 169.613281 295.394531 169.972656 294.703125 170.449219 293.859375 C 172.304688 299.480469 177.570312 299.929688 180.890625 295.0625 C 183.101562 299.359375 185.167969 299.539062 188.90625 295.753906 C 192.253906 299.296875 193.152344 299.328125 198.117188 296.054688 C 198.179688 296.113281 198.269531 296.144531 198.296875 296.234375 C 198.535156 297.105469 198.089844 297.675781 197.519531 298.246094 C 195.394531 300.378906 193.003906 302.394531 191.238281 304.855469 C 188.875 308.191406 191 311.945312 195.097656 312.097656 C 196.683594 312.15625 198.027344 311.617188 199.195312 310.5625 C 200.453125 309.453125 201.199219 308.011719 201.320312 306.417969 C 201.617188 303.625 201.617188 300.769531 201.855469 297.976562 C 201.917969 297.195312 202.15625 296.265625 202.632812 295.664062 C 204.96875 292.660156 206.910156 289.445312 208.316406 285.929688 C 209.09375 284.039062 209.871094 283.648438 212.027344 284.335938 C 211.964844 284.789062 211.847656 285.207031 211.816406 285.691406 C 211.636719 287.824219 211.367188 289.957031 211.339844 292.089844 C 211.308594 293.800781 211.789062 295.421875 212.894531 296.746094 C 214.839844 299.058594 217.648438 299 219.472656 296.59375 C 219.683594 296.355469 219.894531 296.113281 220.164062 295.785156 C 221.386719 297.738281 222.972656 298.667969 225.1875 298.367188 C 227.28125 298.066406 228.566406 296.625 229.824219 294.882812 C 230.480469 296.746094 231.410156 298.035156 233.292969 298.398438 C 235.265625 298.726562 236.492188 297.675781 237.269531 296.054688 C 237.75 296.863281 237.957031 297.765625 238.496094 298.097656 C 240.5 299.296875 242.054688 298.335938 242.117188 296.085938 C 242.117188 295.484375 242.117188 294.882812 242.144531 294.28125 C 242.296875 291.277344 242.984375 288.421875 244.238281 285.691406 C 244.449219 285.269531 244.75 284.910156 245.167969 284.308594 C 245.226562 284.910156 245.316406 285.179688 245.316406 285.417969 C 245.617188 288.453125 245.886719 291.488281 246.273438 294.523438 C 246.332031 295.214844 246.722656 296.054688 247.230469 296.382812 C 247.890625 296.804688 248.816406 296.957031 249.5625 296.863281 C 249.863281 296.835938 250.164062 295.8125 250.3125 295.183594 C 250.96875 292.359375 251.507812 289.503906 252.136719 286.621094 C 252.316406 285.871094 252.703125 285.179688 253.003906 284.488281 C 253.242188 284.789062 253.273438 285.058594 253.304688 285.300781 C 253.363281 287.582031 253.363281 289.867188 253.511719 292.117188 C 253.601562 293.859375 253.960938 295.511719 255.097656 296.925781 C 257.042969 299.238281 260.152344 298.878906 261.347656 296.144531 C 261.796875 295.09375 262.007812 293.921875 262.15625 292.808594 C 262.457031 292.359375 262.066406 291.96875 261.886719 291.546875 Z M 179.484375 293.589844 C 179.003906 294.824219 178.257812 296.085938 176.761719 295.933594 C 175.207031 295.785156 174.816406 294.371094 174.578125 293.109375 C 174.339844 292.027344 174.308594 290.886719 174.101562 289.324219 C 174.398438 287.972656 174.636719 286.109375 175.175781 284.398438 C 175.65625 282.894531 176.761719 282.144531 177.898438 282.292969 C 179.363281 282.476562 179.902344 283.585938 180.140625 284.789062 C 180.800781 287.730469 180.621094 290.738281 179.484375 293.589844 Z M 197.550781 292.78125 C 197.398438 293.351562 197.222656 294.042969 196.800781 294.402344 C 196.113281 295.0625 195.304688 295.785156 194.46875 295.902344 C 193.390625 296.054688 192.855469 294.914062 192.585938 293.921875 C 191.65625 290.707031 191.835938 287.550781 193.035156 284.457031 C 193.242188 283.945312 193.542969 283.464844 193.902344 283.074219 C 195.1875 281.695312 197.101562 281.996094 197.667969 283.765625 C 198.117188 285.058594 198.179688 286.46875 198.417969 287.851562 C 198.179688 289.503906 197.910156 291.1875 197.550781 292.78125 Z M 197.609375 308.851562 C 197.042969 310.144531 195.636719 310.683594 194.527344 310.234375 C 193.511719 309.8125 193.003906 308.671875 193.363281 307.261719 C 194.171875 304.375 196.292969 302.394531 198.417969 300.441406 C 198.746094 303.414062 198.777344 306.207031 197.609375 308.851562 Z M 228.535156 293.140625 C 228.328125 293.890625 227.847656 294.640625 227.3125 295.210938 C 226.203125 296.445312 224.828125 296.234375 224.082031 294.761719 C 223.722656 294.042969 223.390625 293.230469 223.363281 292.449219 C 223.332031 290.226562 223.390625 287.972656 223.601562 285.78125 C 223.660156 284.9375 224.109375 284.039062 224.617188 283.316406 C 225.816406 281.605469 227.9375 281.84375 228.65625 283.796875 C 229.136719 285.117188 229.226562 286.621094 229.523438 288.121094 C 229.226562 289.804688 228.984375 291.519531 228.535156 293.140625 Z M 228.535156 293.140625 " fill-opacity="1" fill-rule="nonzero"/></g><g clip-path="url(#bbd6203736)"><path fill="#000000" d="M 115.894531 286.289062 C 116.402344 286.589844 117 286.621094 117.597656 286.800781 C 117.6875 286.742188 117.777344 286.652344 117.867188 286.5625 C 114.90625 281.183594 116.34375 276.617188 119.902344 272.410156 C 120.082031 272.441406 120.230469 272.472656 120.382812 272.5 C 120.410156 272.832031 120.441406 273.191406 120.441406 273.523438 C 120.410156 280.882812 120.410156 288.242188 120.292969 295.574219 C 120.261719 297.136719 119.8125 298.699219 119.574219 300.261719 C 119.511719 300.710938 119.425781 301.101562 119.304688 301.761719 C 121.039062 301.550781 122.175781 300.710938 122.742188 299.480469 C 123.492188 297.796875 124.238281 295.992188 124.269531 294.222656 C 124.480469 286.800781 124.417969 279.351562 124.417969 271.898438 C 124.417969 271.417969 124.121094 270.730469 123.730469 270.519531 C 122.625 269.765625 121.339844 269.40625 119.992188 270.15625 C 116.015625 272.378906 113.589844 275.777344 112.902344 280.3125 C 112.542969 282.925781 113.621094 284.96875 115.894531 286.289062 Z M 115.894531 286.289062 " fill-opacity="1" fill-rule="nonzero"/></g><path fill="#000000" d="M 187.5 177.785156 C 178.34375 177.785156 170.875 185.25 170.875 194.40625 C 170.875 203.5625 178.34375 211.03125 187.5 211.03125 C 196.65625 211.03125 204.125 203.5625 204.125 194.40625 C 204.125 185.25 196.65625 177.785156 187.5 177.785156 Z M 187.5 177.785156 " fill-opacity="1" fill-rule="nonzero"/><path fill="#000000" d="M 209.835938 153.628906 L 165.164062 153.628906 C 155.03125 153.628906 146.722656 161.875 146.722656 172.070312 L 146.722656 216.746094 C 146.722656 226.875 154.96875 235.1875 165.164062 235.1875 L 209.835938 235.1875 C 219.96875 235.1875 228.277344 226.9375 228.277344 216.746094 L 228.277344 172.070312 C 228.214844 161.875 219.96875 153.628906 209.835938 153.628906 Z M 187.5 219.40625 C 173.667969 219.40625 162.433594 208.171875 162.433594 194.339844 C 162.433594 180.511719 173.667969 169.277344 187.5 169.277344 C 201.332031 169.277344 212.566406 180.511719 212.566406 194.339844 C 212.5 208.171875 201.265625 219.40625 187.5 219.40625 Z M 214.316406 173.496094 C 211.007812 173.496094 208.277344 170.769531 208.277344 167.457031 C 208.277344 164.148438 211.007812 161.417969 214.316406 161.417969 C 217.628906 161.417969 220.355469 164.148438 220.355469 167.457031 C 220.355469 170.835938 217.695312 173.496094 214.316406 173.496094 Z M 214.316406 173.496094 " fill-opacity="1" fill-rule="nonzero"/><g clip-path="url(#930038570b)"><path fill="#000000" d="M 187.5 119.40625 C 146.070312 119.40625 112.5 152.976562 112.5 194.40625 C 112.5 235.835938 146.070312 269.40625 187.5 269.40625 C 228.929688 269.40625 262.5 235.835938 262.5 194.40625 C 262.433594 152.976562 228.863281 119.40625 187.5 119.40625 Z M 236.65625 216.746094 C 236.65625 231.550781 224.578125 243.628906 209.773438 243.628906 L 165.164062 243.628906 C 150.355469 243.628906 138.277344 231.550781 138.277344 216.746094 L 138.277344 172.070312 C 138.277344 157.265625 150.355469 145.1875 165.164062 145.1875 L 209.835938 145.1875 C 224.644531 145.1875 236.722656 157.265625 236.722656 172.070312 L 236.722656 216.746094 Z M 236.65625 216.746094 " fill-opacity="1" fill-rule="nonzero"/></g></svg>